<svg width="237" height="236" viewBox="0 0 237 236" fill="none" xmlns="http://www.w3.org/2000/svg">
<path d="M194.957 134.213L165.32 104.572V55.0667C180.498 55.0667 192.853 42.716 192.853 27.5333C192.853 12.3507 180.498 0 165.32 0H63.0529C47.8741 0 35.5195 12.3507 35.5195 27.5333C35.5195 42.716 47.8741 55.0667 63.0529 55.0667V137.667C63.0529 144.172 68.3471 149.467 74.8529 149.467H120.424L125.137 154.179C122.784 159.363 120.31 167.706 122.112 177.696C124.905 193.146 136.162 201.642 139.552 203.88L143.887 197.316C141.165 195.514 132.095 188.678 129.861 176.3C128.134 166.738 131.316 159.033 133.373 155.292C134.215 153.758 133.943 151.854 132.704 150.619L124.838 142.752L105.372 123.286C102.19 120.108 101.91 115.062 104.738 111.534C106.288 109.594 108.503 108.43 110.977 108.249C113.443 108.06 115.811 108.902 117.628 110.594L166.57 156.275L171.939 150.525L163.939 143.055C164.804 141.395 165.32 139.566 165.32 137.667V115.695L189.395 139.771C191.594 141.97 192.853 145.01 192.853 148.118V236H200.72V148.118C200.72 142.867 198.67 137.926 194.957 134.213ZM157.453 51.1333V137.006L122.989 104.839C119.61 101.685 114.996 100.052 110.402 100.402C105.785 100.737 101.478 103.002 98.5709 106.637C95.9119 109.96 94.7162 114.008 94.9365 117.976C95.1567 121.945 96.793 125.839 99.802 128.848L112.558 141.6H74.8529C72.6817 141.6 70.9195 139.834 70.9195 137.667V51.1333V31.4667H157.453V51.1333ZM161.386 23.6H66.9862C64.8111 23.6 63.0529 25.3621 63.0529 27.5333V47.2C52.2087 47.2 43.3862 38.3775 43.3862 27.5333C43.3862 16.6891 52.2087 7.86667 63.0529 7.86667H165.32C176.164 7.86667 184.986 16.6891 184.986 27.5333C184.986 38.3775 176.164 47.2 165.32 47.2V27.5333C165.32 25.3621 163.561 23.6 161.386 23.6Z" fill="url(#paint0_linear_574_987)"/>
<path d="M117.502 206.361C112.263 198.125 110.662 189.963 110.238 184.562L102.395 185.176C102.886 191.465 104.755 200.976 110.863 210.578C115.162 217.339 121.015 223.196 127.8 227.522L132.032 220.887C126.211 217.174 121.184 212.151 117.502 206.361Z" fill="url(#paint1_linear_574_987)"/>
<path d="M133.85 39.3359H125.984C119.478 39.3359 114.184 44.6302 114.184 51.1359V66.8693C114.184 73.375 119.478 78.6693 125.984 78.6693H133.85C140.356 78.6693 145.65 73.375 145.65 66.8693V51.1359C145.65 44.6302 140.356 39.3359 133.85 39.3359ZM137.784 66.8693C137.784 69.0365 136.021 70.8026 133.85 70.8026H125.984C123.812 70.8026 122.05 69.0365 122.05 66.8693V51.1359C122.05 48.9687 123.812 47.2026 125.984 47.2026H133.85C136.021 47.2026 137.784 48.9687 137.784 51.1359V66.8693Z" fill="url(#paint2_linear_574_987)"/>
<path d="M90.5815 39.3359H82.7148V59.0026H90.5815V39.3359Z" fill="url(#paint3_linear_574_987)"/>
<path d="M90.5815 74.7344H82.7148V94.401H90.5815V74.7344Z" fill="url(#paint4_linear_574_987)"/>
<path d="M90.5815 110.133H82.7148V133.733H90.5815V110.133Z" fill="url(#paint5_linear_574_987)"/>
<defs>
<linearGradient id="paint0_linear_574_987" x1="118.12" y1="0" x2="118.12" y2="236" gradientUnits="userSpaceOnUse">
<stop stop-color="#DEBE5D"/>
<stop offset="1" stop-color="#795F02"/>
</linearGradient>
<linearGradient id="paint1_linear_574_987" x1="117.213" y1="184.562" x2="117.213" y2="227.522" gradientUnits="userSpaceOnUse">
<stop stop-color="#DEBE5D"/>
<stop offset="1" stop-color="#795F02"/>
</linearGradient>
<linearGradient id="paint2_linear_574_987" x1="129.917" y1="39.3359" x2="129.917" y2="78.6693" gradientUnits="userSpaceOnUse">
<stop stop-color="#DEBE5D"/>
<stop offset="1" stop-color="#795F02"/>
</linearGradient>
<linearGradient id="paint3_linear_574_987" x1="86.6482" y1="39.3359" x2="86.6482" y2="59.0026" gradientUnits="userSpaceOnUse">
<stop stop-color="#DEBE5D"/>
<stop offset="1" stop-color="#795F02"/>
</linearGradient>
<linearGradient id="paint4_linear_574_987" x1="86.6482" y1="74.7344" x2="86.6482" y2="94.401" gradientUnits="userSpaceOnUse">
<stop stop-color="#DEBE5D"/>
<stop offset="1" stop-color="#795F02"/>
</linearGradient>
<linearGradient id="paint5_linear_574_987" x1="86.6482" y1="110.133" x2="86.6482" y2="133.733" gradientUnits="userSpaceOnUse">
<stop stop-color="#DEBE5D"/>
<stop offset="1" stop-color="#795F02"/>
</linearGradient>
</defs>
</svg>
