<svg width="48" height="48" viewBox="0 0 48 48" fill="none" xmlns="http://www.w3.org/2000/svg">
<rect width="48" height="48" rx="16" fill="#16A34A"/>
<g clip-path="url(#clip0_2544_5459)">
<circle cx="24" cy="24" r="18" fill="white"/>
<path d="M24 2C19.6488 2 15.3953 3.29028 11.7775 5.70767C8.15958 8.12506 5.33979 11.561 3.67466 15.581C2.00953 19.6009 1.57386 24.0244 2.42273 28.292C3.27161 32.5596 5.36691 36.4796 8.44366 39.5564C11.5204 42.6331 15.4404 44.7284 19.708 45.5773C23.9756 46.4262 28.3991 45.9905 32.419 44.3254C36.439 42.6602 39.875 39.8404 42.2923 36.2225C44.7097 32.6047 46 28.3512 46 24C45.9937 18.1672 43.6738 12.5751 39.5494 8.45062C35.425 4.32619 29.8328 2.00631 24 2ZM24 36.8333C23.6374 36.8333 23.283 36.7258 22.9815 36.5244C22.68 36.3229 22.445 36.0366 22.3062 35.7016C22.1675 35.3666 22.1312 34.998 22.2019 34.6423C22.2726 34.2867 22.4473 33.96 22.7036 33.7036C22.96 33.4472 23.2867 33.2726 23.6423 33.2019C23.998 33.1312 24.3666 33.1675 24.7016 33.3062C25.0366 33.445 25.3229 33.68 25.5244 33.9815C25.7258 34.2829 25.8333 34.6374 25.8333 35C25.8333 35.4862 25.6402 35.9525 25.2964 36.2964C24.9526 36.6402 24.4862 36.8333 24 36.8333ZM26.7995 25.2833C26.4992 25.4294 26.2479 25.6597 26.0764 25.9462C25.9048 26.2327 25.8204 26.563 25.8333 26.8967V27.6667C25.8333 28.1529 25.6402 28.6192 25.2964 28.963C24.9526 29.3068 24.4862 29.5 24 29.5C23.5138 29.5 23.0475 29.3068 22.7036 28.963C22.3598 28.6192 22.1667 28.1529 22.1667 27.6667V26.8967C22.1477 25.8353 22.4452 24.7924 23.0211 23.9007C23.5971 23.0091 24.4255 22.309 25.4007 21.8898C26.1792 21.5675 26.823 20.9869 27.2236 20.2456C27.6243 19.5044 27.7575 18.6477 27.6007 17.8198C27.4595 17.0944 27.1048 16.4276 26.5822 15.905C26.0596 15.3824 25.3928 15.0277 24.6673 14.8865C24.1376 14.7885 23.5928 14.8083 23.0716 14.9447C22.5504 15.0811 22.0657 15.3307 21.652 15.6757C21.2382 16.0207 20.9055 16.4526 20.6776 16.9408C20.4497 17.4289 20.3322 17.9613 20.3333 18.5C20.3333 18.9862 20.1402 19.4525 19.7964 19.7964C19.4526 20.1402 18.9862 20.3333 18.5 20.3333C18.0138 20.3333 17.5475 20.1402 17.2036 19.7964C16.8598 19.4525 16.6667 18.9862 16.6667 18.5C16.6677 17.1719 17.0293 15.8691 17.7129 14.7305C18.3965 13.5919 19.3765 12.6603 20.5483 12.0352C21.72 11.4101 23.0396 11.1149 24.366 11.1812C25.6924 11.2475 26.9759 11.6727 28.0795 12.4115C29.1831 13.1503 30.0654 14.1749 30.6321 15.376C31.1988 16.5771 31.4288 17.9095 31.2973 19.231C31.1659 20.5526 30.6781 21.8137 29.8859 22.8796C29.0938 23.9455 28.027 24.7763 26.7995 25.2833Z" fill="#16A34A"/>
</g>
<defs>
<clipPath id="clip0_2544_5459">
<rect width="44" height="44" fill="white" transform="translate(2 2)"/>
</clipPath>
</defs>
</svg>
