<svg width="64" height="64" viewBox="0 0 64 64" fill="none" xmlns="http://www.w3.org/2000/svg">
<g clip-path="url(#clip0_2326_970)">
<path d="M64 43.3115C64 35.3696 59.4438 28.2817 52.6201 24.834C52.4082 40.0615 40.0625 52.4072 24.835 52.6191C28.2827 59.4429 35.3706 63.999 43.3125 63.999C47.0361 63.999 50.6572 63.0073 53.8389 61.123L63.9097 63.9087L61.124 53.8379C63.0083 50.6562 64 47.0352 64 43.3115Z" fill="#A9B4BC"/>
<path d="M48.875 24.4375C48.875 10.9624 37.9126 0 24.4375 0C10.9624 0 0 10.9624 0 24.4375C0 28.8291 1.16895 33.105 3.38867 36.8589L0.0898438 48.7847L12.0161 45.4863C15.77 47.7061 20.0459 48.875 24.4375 48.875C37.9126 48.875 48.875 37.9126 48.875 24.4375ZM20.6875 18.75H16.9375C16.9375 14.6143 20.3018 11.25 24.4375 11.25C28.5732 11.25 31.9375 14.6143 31.9375 18.75C31.9375 20.8491 31.0488 22.8667 29.4985 24.2847L26.3125 27.2007V30.125H22.5625V25.5493L26.9668 21.5181C27.7539 20.7979 28.1875 19.8149 28.1875 18.75C28.1875 16.6821 26.5054 15 24.4375 15C22.3696 15 20.6875 16.6821 20.6875 18.75ZM22.5625 33.875H26.3125V37.625H22.5625V33.875Z" fill="#A9B4BC"/>
</g>
<defs>
<clipPath id="clip0_2326_970">
<rect width="64" height="64" fill="white"/>
</clipPath>
</defs>
</svg>
