<svg width="302" height="72" viewBox="0 0 302 72" fill="none" xmlns="http://www.w3.org/2000/svg">
<path fill-rule="evenodd" clip-rule="evenodd" d="M90.5353 43.7218C90.5353 52.5363 96.0171 58.5194 104.238 58.5194C112.454 58.5194 118.264 52.3183 118.264 43.6128C118.264 35.1254 112.349 28.8135 104.238 28.8135C96.127 28.8135 90.5353 34.9074 90.5353 43.7218ZM90.7567 21.9582C94.4828 17.9309 100.183 15.5373 106.979 15.5373C122.218 15.5373 133.298 27.4062 133.298 43.7252C133.298 60.0441 122.226 71.9047 106.988 71.9047C99.9646 71.9047 94.155 69.4105 90.4272 65.0494C90.0994 69.075 87.1388 71.9047 83.3012 71.9047C79.1357 71.9047 75.9572 68.6406 75.9572 64.3969V7.5095C75.9572 3.2658 79.1357 0 83.411 0C87.5781 0 90.7567 3.15678 90.7567 7.5095V21.9582ZM284.677 41.2221L300.243 60.5905C301.452 62.1152 301.999 63.5275 301.999 65.1612C301.999 68.9688 299.03 71.9076 295.312 71.9076C293.009 71.9076 291.255 71.032 289.831 69.1869L271.302 46.5527C269.657 44.3772 269 42.8542 269 41.2221C269 39.372 269.772 37.8489 271.631 35.7808L288.952 17.8331C290.27 16.3872 292.141 15.5586 294.104 15.5469C297.942 15.5469 300.901 18.3766 300.901 22.0768C300.901 23.9269 300.133 25.668 298.489 27.3001L284.677 41.2221ZM259.247 0.046875C254.972 0.046875 251.793 3.31268 251.793 7.55638V64.3951C251.793 68.6388 254.972 71.9029 259.247 71.9029C263.412 71.9029 266.592 68.7478 266.592 64.3951V7.55638C266.592 3.20365 263.522 0.046875 259.247 0.046875ZM208.559 21.0894C212.397 17.6072 217.769 15.5391 223.798 15.5391H223.803C236.191 15.5391 244.192 24.0281 244.192 37.1937V64.3986C244.192 68.7514 241.124 71.9065 236.848 71.9065C232.683 71.9065 229.503 68.6423 229.503 64.3986V39.1528C229.503 32.95 225.449 28.7063 219.416 28.7063C213.383 28.7063 209.108 33.059 209.108 39.1528V64.3986C209.108 68.7514 205.928 71.9065 201.762 71.9065C197.487 71.9065 194.309 68.6423 194.309 64.3986V22.9395C194.309 18.6958 197.487 15.5391 201.653 15.5391C205.051 15.5391 207.792 17.8253 208.559 21.0894ZM160.507 61.1328C155.684 61.1328 152.723 58.8483 152.723 55.2621C152.723 51.6759 155.355 49.8208 160.287 49.8208H171.908V50.4749C171.908 56.5688 166.975 61.1379 160.507 61.1379V61.1328ZM163.248 15.5391C155.355 15.5391 148.23 17.9326 143.625 22.178C141.652 24.0231 140.555 25.9856 140.555 28.0488C140.555 31.3129 143.296 34.0335 146.914 34.0335C148.338 34.0335 149.545 33.5974 151.307 32.2924C154.486 29.5718 157.884 28.2668 161.722 28.2668C168.299 28.2668 171.917 31.749 171.917 37.7338V40.1274H158.324C145.608 40.1274 137.824 46.1121 137.824 55.7972C137.824 65.3715 145.388 71.8997 156.57 71.8997C163.036 71.8997 168.518 69.8333 172.466 66.133C173.123 69.3971 175.972 71.7907 179.59 71.7907C183.646 71.7907 186.716 68.7447 186.716 64.501V38.6077C186.708 23.9258 178.157 15.5391 163.248 15.5391ZM56.4739 15.5391C60.4348 15.5441 63.6404 18.7361 63.6354 22.6678L63.6438 64.7777C63.632 68.7078 60.4247 71.8897 56.4654 71.9014C52.5061 71.8897 49.2988 68.7078 49.287 64.7777V39.8707L46.34 42.796C43.5315 45.567 38.9959 45.567 36.1874 42.796C33.3959 40.0083 33.3959 35.5046 36.1874 32.7168L51.3959 17.6207C52.7427 16.2855 54.5694 15.5357 56.4739 15.5391Z" fill="#ffffff"/>
<path fill-rule="evenodd" clip-rule="evenodd" d="M90.5353 43.7218C90.5353 52.5363 96.0171 58.5194 104.238 58.5194C112.454 58.5194 118.264 52.3183 118.264 43.6128C118.264 35.1254 112.349 28.8135 104.238 28.8135C96.127 28.8135 90.5353 34.9074 90.5353 43.7218ZM90.7567 21.9582C94.4828 17.9309 100.183 15.5373 106.979 15.5373C122.218 15.5373 133.298 27.4062 133.298 43.7252C133.298 60.0441 122.226 71.9047 106.988 71.9047C99.9646 71.9047 94.155 69.4105 90.4272 65.0494C90.0994 69.075 87.1388 71.9047 83.3012 71.9047C79.1357 71.9047 75.9572 68.6406 75.9572 64.3969V7.5095C75.9572 3.2658 79.1357 0 83.411 0C87.5781 0 90.7567 3.15678 90.7567 7.5095V21.9582ZM284.677 41.2221L300.243 60.5905C301.452 62.1152 301.999 63.5275 301.999 65.1612C301.999 68.9688 299.03 71.9076 295.312 71.9076C293.009 71.9076 291.255 71.032 289.831 69.1869L271.302 46.5527C269.657 44.3772 269 42.8542 269 41.2221C269 39.372 269.772 37.8489 271.631 35.7808L288.952 17.8331C290.27 16.3872 292.141 15.5586 294.104 15.5469C297.942 15.5469 300.901 18.3766 300.901 22.0768C300.901 23.9269 300.133 25.668 298.489 27.3001L284.677 41.2221ZM259.247 0.046875C254.972 0.046875 251.793 3.31268 251.793 7.55638V64.3951C251.793 68.6388 254.972 71.9029 259.247 71.9029C263.412 71.9029 266.592 68.7478 266.592 64.3951V7.55638C266.592 3.20365 263.522 0.046875 259.247 0.046875ZM208.559 21.0894C212.397 17.6072 217.769 15.5391 223.798 15.5391H223.803C236.191 15.5391 244.192 24.0281 244.192 37.1937V64.3986C244.192 68.7514 241.124 71.9065 236.848 71.9065C232.683 71.9065 229.503 68.6423 229.503 64.3986V39.1528C229.503 32.95 225.449 28.7063 219.416 28.7063C213.383 28.7063 209.108 33.059 209.108 39.1528V64.3986C209.108 68.7514 205.928 71.9065 201.762 71.9065C197.487 71.9065 194.309 68.6423 194.309 64.3986V22.9395C194.309 18.6958 197.487 15.5391 201.653 15.5391C205.051 15.5391 207.792 17.8253 208.559 21.0894ZM160.507 61.1328C155.684 61.1328 152.723 58.8483 152.723 55.2621C152.723 51.6759 155.355 49.8208 160.287 49.8208H171.908V50.4749C171.908 56.5688 166.975 61.1379 160.507 61.1379V61.1328ZM163.248 15.5391C155.355 15.5391 148.23 17.9326 143.625 22.178C141.652 24.0231 140.555 25.9856 140.555 28.0488C140.555 31.3129 143.296 34.0335 146.914 34.0335C148.338 34.0335 149.545 33.5974 151.307 32.2924C154.486 29.5718 157.884 28.2668 161.722 28.2668C168.299 28.2668 171.917 31.749 171.917 37.7338V40.1274H158.324C145.608 40.1274 137.824 46.1121 137.824 55.7972C137.824 65.3715 145.388 71.8997 156.57 71.8997C163.036 71.8997 168.518 69.8333 172.466 66.133C173.123 69.3971 175.972 71.7907 179.59 71.7907C183.646 71.7907 186.716 68.7447 186.716 64.501V38.6077C186.708 23.9258 178.157 15.5391 163.248 15.5391ZM56.4739 15.5391C60.4348 15.5441 63.6404 18.7361 63.6354 22.6678L63.6438 64.7777C63.632 68.7078 60.4247 71.8897 56.4654 71.9014C52.5061 71.8897 49.2988 68.7078 49.287 64.7777V39.8707L46.34 42.796C43.5315 45.567 38.9959 45.567 36.1874 42.796C33.3959 40.0083 33.3959 35.5046 36.1874 32.7168L51.3959 17.6207C52.7427 16.2855 54.5694 15.5357 56.4739 15.5391Z" fill="#ffffff"/>
<path fill-rule="evenodd" clip-rule="evenodd" d="M1.66728e-05 22.6684C-0.00843248 18.7367 3.19549 15.5413 7.15645 15.5313C9.06596 15.5262 10.8994 16.2794 12.2496 17.6213L27.4581 32.7174C30.2514 35.5052 30.2514 40.0089 27.4581 42.7966C24.6496 45.5676 20.1124 45.5676 17.3039 42.7966L14.3585 39.873V64.7783C14.3467 68.7083 11.1394 71.8903 7.18011 71.902C3.22083 71.892 0.0118455 68.7083 1.66728e-05 64.7783V22.6684Z" fill="#FABF00"/>
</svg>
